<?xml version="1.0" standalone="no"?>
<!DOCTYPE svg PUBLIC "-//W3C//DTD SVG 20010904//EN"
 "http://www.w3.org/TR/2001/REC-SVG-20010904/DTD/svg10.dtd">
<svg version="1.0" xmlns="http://www.w3.org/2000/svg"
 width="128.000000pt" height="128.000000pt" viewBox="0 0 128.000000 128.000000"
 preserveAspectRatio="xMidYMid meet">
<metadata>
Created by potrace 1.11, written by Peter Selinger 2001-2013
</metadata>
<g transform="translate(0.000000,128.000000) scale(0.100000,-0.100000)"
fill="#000000" stroke="none">
<path d="M665 1198 c-129 -46 -197 -179 -160 -313 4 -16 14 -39 21 -50 11 -18
7 -27 -30 -75 -268 -350 -288 -380 -288 -421 1 -43 47 -115 86 -136 12 -6 44
-22 71 -37 28 -14 56 -26 63 -26 6 0 12 -8 12 -17 0 -13 3 -15 8 -5 7 10 17
10 49 -2 23 -8 44 -12 47 -9 3 4 6 2 6 -3 0 -5 21 -10 48 -12 60 -3 74 -6 89
-15 6 -4 14 -3 18 2 3 5 15 7 28 5 26 -7 31 -6 76 2 26 5 32 4 26 -6 -5 -9 -4
-11 4 -6 6 4 8 12 5 18 -4 6 -1 9 7 6 8 -3 30 5 50 18 20 13 40 20 45 16 4 -4
4 -1 0 6 -4 6 -2 12 3 12 6 0 11 7 11 16 0 8 4 13 9 10 5 -4 7 4 3 16 -4 15
-2 19 7 13 10 -6 11 -3 2 13 -6 11 -12 37 -13 56 -2 20 -6 36 -9 36 -4 0 -10
21 -13 47 -4 27 -10 57 -13 68 -3 11 -6 30 -7 43 0 12 -5 22 -10 22 -4 0 -6 9
-3 20 3 11 1 20 -4 20 -5 0 -8 3 -7 8 1 4 -1 18 -5 32 -38 156 -43 185 -29
176 5 -3 15 4 22 15 8 10 20 19 27 19 7 0 13 6 13 14 0 8 4 16 9 18 5 2 18 22
29 46 28 58 25 160 -7 218 -55 104 -190 159 -296 122z"/>
</g>
</svg>
